<svg id="Icon_ionic-ios-car" data-name="Icon ionic-ios-car" xmlns="http://www.w3.org/2000/svg" width="19.515" height="14.261" viewBox="0 0 19.515 14.261">
  <g id="Grupo_2" data-name="Grupo 2" transform="translate(0 0)">
    <path id="Trazado_12" data-name="Trazado 12" d="M20.639,11.638c-.647-1.445-2.3-4.325-4.691-4.325H10.318c-2.393,0-3.978,2.787-4.691,4.325C4.5,12.717,3.375,13.782,3.375,15.616v3.565a.376.376,0,0,0,.291.366c.7.16,2.918.479,9.467.479s8.768-.319,9.467-.479a.376.376,0,0,0,.291-.366V15.616A5.077,5.077,0,0,0,20.639,11.638Zm-10.6-3.2h6.192c1.9,0,2.909,2.815,2.909,3.284H7.128C7.128,11.253,8.395,8.438,10.036,8.438ZM6.377,17.994a1.5,1.5,0,1,1,1.5-1.5A1.5,1.5,0,0,1,6.377,17.994ZM16.51,16.507a.753.753,0,0,1-.751.751H10.506a.753.753,0,0,1-.751-.751h0a.753.753,0,0,1,.751-.751H15.76a.753.753,0,0,1,.751.751Zm3.378,1.5a1.5,1.5,0,1,1,1.5-1.5A1.5,1.5,0,0,1,19.888,18.008Z" transform="translate(-3.375 -7.313)" fill="#7f8da0"/>
    <path id="Trazado_13" data-name="Trazado 13" d="M9,26.883c-2.247,0-4.5-.235-4.5-.235,0,.8-.014,1.36.281,1.36H8.769C9.064,28.009,9,27.39,9,26.883Z" transform="translate(-3.749 -13.748)" fill="#7f8da0"/>
  </g>
  <path id="Trazado_14" data-name="Trazado 14" d="M24.745,26.883c2.252,0,4.5-.235,4.5-.235,0,.751.094,1.36-.235,1.36H24.98C24.666,28.009,24.745,27.376,24.745,26.883Z" transform="translate(-10.484 -13.748)" fill="#7f8da0"/>
</svg>
