<svg xmlns="http://www.w3.org/2000/svg" width="19.515" height="26.022" viewBox="0 0 19.515 26.022">
  <path id="Icon_awesome-hiking" data-name="Icon awesome-hiking" d="M4.114,24a1.627,1.627,0,0,0,3.156.789l1.283-5.132L5.87,16.975,4.114,24Zm.757-9.967L6.963,5.946a.8.8,0,0,0-.606-.969A4.178,4.178,0,0,0,1.309,7.883L.025,12.87a.8.8,0,0,0,.606.969l3.23.775a.836.836,0,0,0,1.01-.581ZM18.7,8.132h-.813a.813.813,0,0,0-.813.813v.813H15.31L12.933,7.38A2.987,2.987,0,0,0,7.922,8.768L6.554,14.242a1.627,1.627,0,0,0,.428,1.544l4.4,4.4v4.206a1.626,1.626,0,1,0,3.253,0V20.189a3.231,3.231,0,0,0-.953-2.3L11.3,15.51c.008-.025.025-.045.032-.072l1.011-4.044,1.14,1.14a1.627,1.627,0,0,0,1.15.477h2.439v12.2a.813.813,0,0,0,.813.813H18.7a.813.813,0,0,0,.813-.813V8.945A.812.812,0,0,0,18.7,8.132ZM12.2,4.879A2.439,2.439,0,1,0,9.758,2.439,2.439,2.439,0,0,0,12.2,4.879Z" transform="translate(0)" fill="#7f8da0"/>
</svg>
