<svg xmlns="http://www.w3.org/2000/svg" width="20" height="20.002" viewBox="0 0 20 20.002">
  <path id="Icon_map-tennis" data-name="Icon map-tennis" d="M2.724,10.39a.761.761,0,1,0,0,1.523.761.761,0,0,0,0-1.523Zm10.62-6.358A1.657,1.657,0,1,0,11.68,2.378,1.656,1.656,0,0,0,13.344,4.032Zm7.138,14.755-2.7-3.178s-.843-4.906-.843-4.916l-.126-.556c.005.005-.339-1.548-.6-2.761.421.243.8.46.821.47.02.045,1.43,2.721,1.43,2.721a.851.851,0,0,0,.5.41.838.838,0,0,0,.645-.061.813.813,0,0,0,.41-.5.792.792,0,0,0-.056-.637L18.413,6.844a1.038,1.038,0,0,0-.143-.187,2.123,2.123,0,0,0-.356-.248l-3-1.705a1.831,1.831,0,0,0-1.223-.167,1.774,1.774,0,0,0-.517.2,2.253,2.253,0,0,0-1.071,1.2l-1.542,3.1-2.43.47-.056.02L5.879,7.977c-.492-.344-.553-1.376-.558-1.416A2.552,2.552,0,0,0,4.2,4.725a2.683,2.683,0,0,0-1.948-.486,1.849,1.849,0,0,0-1.213.734A1.779,1.779,0,0,0,.72,6.015l.03.335a2.653,2.653,0,0,0,1.1,1.679A2.639,2.639,0,0,0,3.8,8.514l.153-.03c.015-.01.989-.309,1.466.015,0,0,1.641,1.158,2.078,1.467a.738.738,0,0,0-.122.39.843.843,0,0,0,1,.82l2.911-.567a1.667,1.667,0,0,0,.356-.152.93.93,0,0,0,.238-.3L12.65,8.62s.528,2.483.537,2.529c-.06.061-2.388,2.524-2.388,2.524l-.09.051a1.087,1.087,0,0,0-.405.769v5.219a1.042,1.042,0,0,0,2.083,0v-4.36a29.28,29.28,0,0,0,2.5-2.6c.051.293.522,2.94.522,2.94a1.176,1.176,0,0,0,.325.616c0,.006,3.208,3.78,3.208,3.78a1.052,1.052,0,0,0,.69.353,1.029,1.029,0,0,0,.737-.237,1.015,1.015,0,0,0,.355-.77,1,1,0,0,0-.238-.652Zm-16-11.381a1.2,1.2,0,0,1-.791.47A1.964,1.964,0,0,1,2.232,7.5a1.981,1.981,0,0,1-.837-1.249L1.374,6.01a1.114,1.114,0,0,1,.2-.663,1.628,1.628,0,0,1,2.252-.091A1.615,1.615,0,0,1,4.479,7.406Z" transform="translate(-0.72 -0.717)" fill="#7f8da0"/>
</svg>
