<svg xmlns="http://www.w3.org/2000/svg" width="20" height="20" viewBox="0 0 20 20">
  <path id="Icon_awesome-basketball-ball" data-name="Icon awesome-basketball-ball" d="M8.56.655A9.941,9.941,0,0,0,3.633,2.825L6.754,5.946A8.981,8.981,0,0,0,8.56.655ZM10,9.192l6.367-6.367A9.966,9.966,0,0,0,10.5.563,10.881,10.881,0,0,1,8.133,7.325Zm-7.738-5A9.941,9.941,0,0,0,.093,9.123a8.971,8.971,0,0,0,5.29-1.806Zm10.976,8.234A10.913,10.913,0,0,1,20,10.063,9.966,9.966,0,0,0,17.738,4.2l-6.367,6.367,1.867,1.867ZM10,11.933,3.633,18.3A9.993,9.993,0,0,0,9.5,20.563,10.913,10.913,0,0,1,11.867,13.8Zm7.738,5A9.941,9.941,0,0,0,19.907,12a9.016,9.016,0,0,0-5.29,1.806ZM6.762,8.7A10.857,10.857,0,0,1,0,11.063a9.966,9.966,0,0,0,2.262,5.867l6.367-6.367ZM11.44,20.47A9.941,9.941,0,0,0,16.367,18.3l-3.121-3.121A9.026,9.026,0,0,0,11.44,20.47Z" transform="translate(0 -0.563)" fill="#8398b5"/>
</svg>
