<svg id="Icon_ionic-ios-bicycle" data-name="Icon ionic-ios-bicycle" xmlns="http://www.w3.org/2000/svg" width="19.473" height="16.691" viewBox="0 0 19.473 16.691">
  <g id="Grupo_1" data-name="Grupo 1">
    <path id="Trazado_5" data-name="Trazado 5" d="M6.382,19.613a2.911,2.911,0,1,1-2.042.855,2.872,2.872,0,0,1,2.042-.855m0-1.24a4.134,4.134,0,1,0,4.132,4.136,4.145,4.145,0,0,0-4.132-4.136Z" transform="translate(-2.25 -9.95)" fill="#7f8da0"/>
    <path id="Trazado_6" data-name="Trazado 6" d="M21.653,7.325A1.41,1.41,0,0,0,23.07,5.908,1.4,1.4,0,0,0,21.662,4.5a1.413,1.413,0,1,0-.009,2.825Z" transform="translate(-9.152 -4.5)" fill="#7f8da0"/>
    <path id="Trazado_7" data-name="Trazado 7" d="M24.762,19.613a2.911,2.911,0,1,1-2.042.855,2.872,2.872,0,0,1,2.042-.855m0-1.24A4.132,4.132,0,1,0,28.894,22.5a4.145,4.145,0,0,0-4.132-4.132Z" transform="translate(-9.421 -9.95)" fill="#7f8da0"/>
  </g>
  <path id="Trazado_8" data-name="Trazado 8" d="M20.462,11.522H18.336L17.029,8.86a1.386,1.386,0,0,0-2.192-.292l-3.175,3.06a1.442,1.442,0,0,0-.412.992,1.32,1.32,0,0,0,.819,1.2c2.015,1.16,2.724,1.289,2.724,1.869v2.918a.709.709,0,0,0,1.417,0V14.622c0-.585-1.346-1.063-2.139-1.683l2.166-2.281c.828,1.262,1.209,2.281,1.683,2.281h2.542a.709.709,0,0,0,0-1.417Z" transform="translate(-5.791 -5.853)" fill="#7f8da0"/>
</svg>
